<?xml version="1.0" encoding="utf-8"?>
<!-- Generator: Adobe Illustrator 23.0.1, SVG Export Plug-In . SVG Version: 6.00 Build 0)  -->
<svg version="1.1" id="Layer_1" xmlns="http://www.w3.org/2000/svg" xmlns:xlink="http://www.w3.org/1999/xlink" x="0px" y="0px"
	 viewBox="0 0 64 64" style="enable-background:new 0 0 64 64;" xml:space="preserve">
<style type="text/css">
	.st0{fill:#FFFFFF;}
</style>
<path class="st0" d="M64,61.5c0,1.4-1.1,2.5-2.5,2.5H32c-1.4,0-2.5-1.1-2.5-2.5S30.6,59,32,59h29.5C62.9,59,64,60.1,64,61.5z
	 M61.5,49.2H41.8c-1.4,0-2.5,1.1-2.5,2.5c0,1.4,1.1,2.5,2.5,2.5h19.7c1.4,0,2.5-1.1,2.5-2.5C64,50.3,62.9,49.2,61.5,49.2z
	 M61.5,39.3h-9.8c-1.4,0-2.5,1.1-2.5,2.5s1.1,2.5,2.5,2.5h9.8c1.4,0,2.5-1.1,2.5-2.5S62.9,39.3,61.5,39.3z M63.3,19L19,63.3
	c-0.5,0.5-1.1,0.7-1.8,0.7H2.5C1.1,64,0,62.9,0,61.5V46.8c0-0.7,0.3-1.3,0.7-1.8L45,0.7c1-1,2.6-1,3.5,0l14.8,14.8
	C64.2,16.5,64.2,18,63.3,19z M58,17.3L46.8,6L5,47.8V59h11.2L58,17.3z"/>
</svg>
