<?xml version="1.0" encoding="utf-8"?>
<!-- Generator: Adobe Illustrator 23.0.1, SVG Export Plug-In . SVG Version: 6.00 Build 0)  -->
<svg version="1.1" id="Layer_1" xmlns="http://www.w3.org/2000/svg" xmlns:xlink="http://www.w3.org/1999/xlink" x="0px" y="0px"
	 viewBox="0 0 64 64" style="enable-background:new 0 0 64 64;" xml:space="preserve">
<style type="text/css">
	.st0{fill:#FFFFFF;}
</style>
<g>
	<path class="st0" d="M21.8,30H8.3C3.7,30,0,26.3,0,21.8V8.3C0,3.7,3.7,0,8.3,0h13.5C26.3,0,30,3.7,30,8.3v13.5
		C30,26.3,26.3,30,21.8,30z"/>
	<path class="st0" d="M55.8,30H42.3c-4.5,0-8.3-3.7-8.3-8.3V8.3C34,3.7,37.7,0,42.3,0h13.5C60.3,0,64,3.7,64,8.3v13.5
		C64,26.3,60.3,30,55.8,30z"/>
	<path class="st0" d="M49,64c-8.3,0-15-6.7-15-15s6.7-15,15-15s15,6.7,15,15S57.3,64,49,64z"/>
	<path class="st0" d="M21.8,64H8.3C3.7,64,0,60.3,0,55.8V42.3C0,37.7,3.7,34,8.3,34h13.5c4.5,0,8.3,3.7,8.3,8.3v13.5
		C30,60.3,26.3,64,21.8,64z"/>
</g>
</svg>
