<?xml version="1.0" encoding="utf-8"?>
<!-- Generator: Adobe Illustrator 23.0.1, SVG Export Plug-In . SVG Version: 6.00 Build 0)  -->
<svg version="1.1" id="Capa_1" xmlns="http://www.w3.org/2000/svg" xmlns:xlink="http://www.w3.org/1999/xlink" x="0px" y="0px"
	 viewBox="0 0 201.2 256" style="enable-background:new 0 0 201.2 256;" xml:space="preserve">
<g>
	<path d="M193.7,72.5c5.3,0,9-5.4,7-10.3c-7-17.4-24.1-29.7-44.1-29.7h-9.2C144,14.4,128.1,0,108.6,0h-16
		C73.2,0,57.2,14.4,53.8,32.5h-9.2c-19.9,0-37,12.3-44.1,29.7c-2,4.9,1.7,10.3,7,10.3H193.7z M92.6,15h16c10.9,0,20.2,7.4,23.4,17.5
		H69.2C72.4,22.4,81.7,15,92.6,15z"/>
	<path d="M28.1,235.1C29,246.8,38.8,256,50.6,256h100.1c11.8,0,21.6-9.2,22.4-20.9l10.5-147.6h-166L28.1,235.1z M121.1,127.6
		c0.2-4.1,3.7-7.3,7.9-7.1c4.1,0.2,7.3,3.7,7.1,7.9l-4,80c-0.2,4-3.5,7.1-7.5,7.1c-4.3,0-7.7-3.6-7.5-7.9L121.1,127.6z M72.2,120.5
		c4.1-0.2,7.7,3,7.9,7.1l4,80c0.2,4.3-3.2,7.9-7.5,7.9c-4,0-7.3-3.1-7.5-7.1l-4-80C64.9,124.2,68.1,120.7,72.2,120.5L72.2,120.5z"/>
</g>
</svg>
