<?xml version="1.0" encoding="utf-8"?>
<!-- Generator: Adobe Illustrator 23.0.1, SVG Export Plug-In . SVG Version: 6.00 Build 0)  -->
<svg version="1.1" id="Layer_1" xmlns="http://www.w3.org/2000/svg" xmlns:xlink="http://www.w3.org/1999/xlink" x="0px" y="0px"
	 viewBox="0 0 64 64" style="enable-background:new 0 0 64 64;" xml:space="preserve">
<style type="text/css">
	.st0{fill:#FFFFFF;}
</style>
<g>
	<path class="st0" d="M58.1,4.6c0-2.5-2-4.6-4.4-4.6H10.3C7.9,0,5.9,2.1,5.9,4.6c0,0-0.3,3.2-0.7,7.4h53.5
		C58.4,7.8,58.1,4.6,58.1,4.6z M37.8,8h-2.9V6h1.9V4.7c0-0.4-0.3-0.7-0.7-0.7h-8.2c-0.4,0-0.7,0.3-0.7,0.7V6h1.9v2h-2.9
		c-1.6,0-2.9-1.3-2.9-3s1.3-3,2.9-3h11.6c1.6,0,2.9,1.3,2.9,3S39.4,8,37.8,8z"/>
	<path class="st0" d="M59.1,16H4.9C4.4,21.9,4,28.6,4,32c0,4.6,0.9,15.5,1.5,22.1C5.5,54,5.6,54,5.7,54h52.6c0.1,0,0.2,0,0.3,0.1
		C59.2,47.5,60,36.6,60,32C60,28.6,59.6,21.9,59.1,16z"/>
	<path class="st0" d="M5.9,59.4C5.9,61.9,6,64,8.4,64h47.2c2.5,0,2.5-2.1,2.5-4.6c0,0,0-0.5,0.1-1.4H5.8C5.9,58.9,5.9,59.4,5.9,59.4
		z"/>
</g>
</svg>
