<?xml version="1.0" encoding="utf-8"?>
<!-- Generator: Adobe Illustrator 23.0.1, SVG Export Plug-In . SVG Version: 6.00 Build 0)  -->
<svg version="1.1" id="Layer_1" xmlns="http://www.w3.org/2000/svg" xmlns:xlink="http://www.w3.org/1999/xlink" x="0px" y="0px"
	 viewBox="0 0 64 64" style="enable-background:new 0 0 64 64;" xml:space="preserve">
<style type="text/css">
	.st0{fill:#FFFFFF;}
</style>
<path class="st0" d="M24,34.7c1.5,0,2.7,1.2,2.7,2.7V48c0,1.5,1.2,2.7,2.7,2.7h8v-40c0-2.3,1.5-4.3,3.6-5.1l0.8-0.3H29.3
	c-1.5,0-2.7,1.2-2.7,2.7v8c0,1.5-1.2,2.7-2.7,2.7s-2.7-1.2-2.7-2.7V8c0-4.4,3.6-8,8-8H58c0.1,0,0.2,0,0.3,0.1C58.4,0,58.5,0,58.7,0
	C61.6,0,64,2.4,64,5.3v48c0,2.3-1.5,4.3-3.6,5.1l-16,5.3c-0.5,0.2-1.1,0.2-1.7,0.2c-2.9,0-5.3-2.4-5.3-5.3V56h-8c-4.4,0-8-3.6-8-8
	V37.3C21.3,35.9,22.5,34.7,24,34.7z"/>
<path class="st0" d="M0.8,25.1l10.7-10.7c0.8-0.8,1.9-1,2.9-0.6c1,0.4,1.6,1.4,1.6,2.5v8h10.7c1.5,0,2.7,1.2,2.7,2.7
	c0,1.5-1.2,2.7-2.7,2.7H16v8c0,1.1-0.7,2.1-1.6,2.5c-1,0.4-2.1,0.2-2.9-0.6L0.8,28.9C-0.3,27.8-0.3,26.2,0.8,25.1z"/>
</svg>
