<?xml version="1.0" encoding="utf-8"?>
<!-- Generator: Adobe Illustrator 23.0.1, SVG Export Plug-In . SVG Version: 6.00 Build 0)  -->
<svg version="1.1" id="Layer_1" xmlns="http://www.w3.org/2000/svg" xmlns:xlink="http://www.w3.org/1999/xlink" x="0px" y="0px"
	 viewBox="0 0 64 58.7" style="enable-background:new 0 0 64 58.7;" xml:space="preserve">
<style type="text/css">
	.st0{fill:#FFFFFF;}
</style>
<g>
	<path class="st0" d="M16.7,46.7c-4.3,0-8.1-2.7-9.4-6.8l-0.1-0.3c-0.3-1.1-0.5-2-0.5-2.9V18.5L0.2,40.1c-0.8,3.2,1.1,6.5,4.2,7.3
		l41.2,11c0.5,0.1,1,0.2,1.5,0.2c2.7,0,5.1-1.8,5.8-4.4l2.4-7.6H16.7z"/>
	<path class="st0" d="M24,18.7c2.9,0,5.3-2.4,5.3-5.3S26.9,8,24,8s-5.3,2.4-5.3,5.3S21.1,18.7,24,18.7z"/>
	<path class="st0" d="M57.3,0h-40c-3.7,0-6.7,3-6.7,6.7V36c0,3.7,3,6.7,6.7,6.7h40c3.7,0,6.7-3,6.7-6.7V6.7C64,3,61,0,57.3,0z
		 M17.3,5.3h40c0.7,0,1.3,0.6,1.3,1.3v18.9l-8.4-9.8c-0.9-1-2.2-1.6-3.6-1.6c-1.4,0-2.7,0.6-3.6,1.7l-9.9,11.9L30,24.5
		c-1.8-1.8-4.8-1.8-6.6,0L16,31.8V6.7C16,5.9,16.6,5.3,17.3,5.3z"/>
</g>
</svg>
