<?xml version="1.0" encoding="utf-8"?>
<!-- Generator: Adobe Illustrator 23.0.1, SVG Export Plug-In . SVG Version: 6.00 Build 0)  -->
<svg version="1.1" id="Layer_1" xmlns="http://www.w3.org/2000/svg" xmlns:xlink="http://www.w3.org/1999/xlink" x="0px" y="0px"
	 viewBox="0 0 64 64" style="enable-background:new 0 0 64 64;" xml:space="preserve">
<style type="text/css">
	.st0{fill:#FFFFFF;}
</style>
<path class="st0" d="M60.5,25.1l-5-0.6c-0.4-1.3-0.9-2.5-1.5-3.7l3.1-4c1.3-1.6,1.1-3.9-0.3-5.3l-4.2-4.2c-1.4-1.4-3.7-1.6-5.3-0.3
	l-4,3.1c-1.2-0.6-2.4-1.1-3.7-1.5l-0.6-5C38.7,1.5,37,0,35,0h-6c-2,0-3.7,1.5-4,3.5l-0.6,5c-1.3,0.4-2.5,0.9-3.7,1.5l-4-3.1
	c-1.6-1.3-3.9-1.1-5.3,0.3l-4.2,4.2c-1.4,1.4-1.6,3.7-0.3,5.3l3.1,4c-0.6,1.2-1.1,2.4-1.5,3.7l-5,0.6C1.5,25.3,0,27,0,29v6
	c0,2,1.5,3.7,3.5,4l5,0.6c0.4,1.3,0.9,2.5,1.5,3.7l-3.1,4c-1.3,1.6-1.1,3.9,0.3,5.3l4.2,4.2c1.4,1.4,3.7,1.6,5.3,0.3l4-3.1
	c1.2,0.6,2.4,1.1,3.7,1.5l0.6,5c0.2,2,1.9,3.5,4,3.5h6c2,0,3.7-1.5,4-3.5l0.6-5c1.3-0.4,2.5-0.9,3.7-1.5l4,3.1
	c1.6,1.3,3.9,1.1,5.3-0.3l4.2-4.2c1.4-1.4,1.6-3.7,0.3-5.3l-3.1-4c0.6-1.2,1.1-2.4,1.5-3.7l5-0.6c2-0.2,3.5-1.9,3.5-4v-6
	C64,27,62.5,25.3,60.5,25.1L60.5,25.1z M32,45.3c-7.4,0-13.3-6-13.3-13.3s6-13.3,13.3-13.3s13.3,6,13.3,13.3S39.4,45.3,32,45.3
	L32,45.3z"/>
</svg>
