<?xml version="1.0" encoding="utf-8"?>
<!-- Generator: Adobe Illustrator 23.0.1, SVG Export Plug-In . SVG Version: 6.00 Build 0)  -->
<svg version="1.1" id="Layer_1" xmlns="http://www.w3.org/2000/svg" xmlns:xlink="http://www.w3.org/1999/xlink" x="0px" y="0px"
	 viewBox="0 0 64 64" style="enable-background:new 0 0 64 64;" xml:space="preserve">
<style type="text/css">
	.st0{fill:#FF3C5F;}
	.st1{opacity:0.24;fill:#FF3C5F;}
</style>
<path class="st0" d="M30.1,1.1c-17,1-30.2,15.7-29,33.1c1.1,15.3,13.4,27.7,28.7,28.7c17.5,1.2,32.1-12.1,33.1-29
	c0.1-1-0.7-1.9-1.8-1.9h-6.5c-0.9,0-1.7,0.7-1.7,1.6c-0.9,11.2-10.5,20-22.1,19.4C20.3,52.4,11.6,43.7,11,33.1
	c-0.6-11.5,8.2-21.2,19.4-22.1C31.3,11,32,10.2,32,9.3V2.8C32,1.8,31.1,1,30.1,1.1z"/>
<polygon class="st1" points="26.6,25.1 23.3,33.2 28.7,40.1 37.4,38.9 40.7,30.8 35.3,23.9 "/>
</svg>
