<?xml version="1.0" encoding="utf-8"?>
<!-- Generator: Adobe Illustrator 23.0.1, SVG Export Plug-In . SVG Version: 6.00 Build 0)  -->
<svg version="1.1" id="Layer_1" xmlns="http://www.w3.org/2000/svg" xmlns:xlink="http://www.w3.org/1999/xlink" x="0px" y="0px"
	 viewBox="0 0 64 64" style="enable-background:new 0 0 64 64;" xml:space="preserve">
<style type="text/css">
	.st0{fill:#FFFFFF;}
</style>
<g>
	<circle class="st0" cx="23.4" cy="12.5" r="12.5"/>
	<circle class="st0" cx="48.6" cy="17" r="7.9"/>
	<path class="st0" d="M26.8,29.9c-6.3-0.5-11.7,0-16.4,3.9C2.5,40,4.1,48.5,4.1,58.9c0,2.7,2.2,5,5,5c30.2,0,31.4,1,33.2-3
		c0.6-1.3,0.4-0.9,0.4-13.8C42.7,36.9,33.9,29.9,26.8,29.9L26.8,29.9z"/>
	<path class="st0" d="M50.3,29.8c-3.6,0-6.4-0.3-9.5,2.2c7.4,7.6,6.2,15.2,6.2,26.9c0,0.6-1,0.4,8.7,0.4c2.4,0,4.4-1.9,4.4-4.3V39.5
		C60.1,34.1,55.7,29.8,50.3,29.8z"/>
</g>
</svg>
