<?xml version="1.0" encoding="utf-8"?>
<!-- Generator: Adobe Illustrator 23.0.1, SVG Export Plug-In . SVG Version: 6.00 Build 0)  -->
<svg version="1.1" id="Layer_1" xmlns="http://www.w3.org/2000/svg" xmlns:xlink="http://www.w3.org/1999/xlink" x="0px" y="0px"
	 viewBox="0 0 64 64" style="enable-background:new 0 0 64 64;" xml:space="preserve">
<style type="text/css">
	.st0{fill:#AAD9FF;}
</style>
<g>
	<g>
		<path class="st0" d="M34,52.9c-0.4,0.9-0.7,1.7-0.9,2.4c-0.2,0.7-0.3,1.4-0.4,2c-0.1,0.6-0.1,0.9,0,1.1c0.1,0.1,0.2,0.1,0.3,0
			c0.3-0.2,0.6-0.6,1.1-1.5c0.4-0.8,0.8-1.9,1.1-3.1c0.2-0.8,0.3-1.5,0.3-1.9c0-0.4-0.1-0.9-0.2-1.3C34.8,51.2,34.4,52,34,52.9z"/>
	</g>
	<g>
		<path class="st0" d="M32,0L4.3,16v32L32,64l27.7-16V16L32,0z M21.7,18.7C21.7,13,26.3,8.4,32,8.4S42.3,13,42.3,18.7
			c0,5.7-4.6,10.3-10.3,10.3S21.7,24.3,21.7,18.7z M51.8,40.8c-0.2,0.6-0.4,1.1-0.6,1.4c-0.2,0.4-0.4,0.6-0.6,0.7
			c-0.2,0.1-0.4,0.1-0.6,0.1c-0.2-0.1-0.4-0.2-0.5-0.4c-0.1-0.2-0.2-0.4-0.3-0.7c0-0.2-0.1-0.6-0.1-0.9c0-0.4,0-0.8,0-1.4
			c0-0.5,0-1,0-1.5c-0.3,0.8-0.6,1.6-0.8,2.4c-0.2,0.7-0.4,1.3-0.4,1.9c-0.1,0.5-0.2,0.9-0.2,1.2c-0.1,0.6-0.3,0.9-0.6,1.1
			c-0.3,0.2-0.6,0.1-0.8-0.4c-0.1-0.2-0.2-0.6-0.2-1.2c0-0.6,0-1.4,0-2.3c0-0.1,0-0.2-0.1-0.3c-0.1-0.1-0.2-0.1-0.3-0.1
			c-0.1,0.1-0.2,0.3-0.3,0.7c-0.1,0.4-0.3,1.2-0.5,2.4c-0.1,0.3-0.1,0.7-0.2,1.2c0,0.5-0.1,0.8-0.1,1c0,0.2-0.1,0.3-0.2,0.4
			c-0.2,0.1-0.5,0.1-0.9-0.2c-0.4-0.2-0.7-0.6-1-1.1c-0.2,0.9-0.5,1.6-0.6,2.1c-0.2,0.6-0.4,1.1-0.7,1.4c-0.2,0.4-0.5,0.7-0.8,0.9
			c-0.3,0.2-0.7,0.2-1.1,0.1c-0.4-0.1-0.8-0.3-1.2-0.6c-0.3-0.3-0.6-0.6-0.8-0.9l-0.9,1.2c0.4,1.1,0.5,2.3,0.4,3.5
			c-0.1,1.2-0.4,2.3-0.8,3.3c-0.4,1-0.8,1.9-1.3,2.6c-0.5,0.7-0.9,1.2-1.2,1.4C33.1,60,32.9,60,32.7,60l-0.5-0.1
			c-0.3-0.1-0.5-0.2-0.6-0.4c-0.1-0.2-0.2-0.6-0.1-1.2c0-0.6,0.2-1.3,0.4-2.2c0.2-0.9,0.6-1.9,1.1-3c0.5-1.1,1.2-2.3,2-3.5
			c-0.3-0.4-0.6-0.6-0.9-0.7c-0.3,0-0.6,0-1,0.3c-0.3,0.2-0.8,0.7-1.5,1.6c-0.6,0.9-1.1,1.7-1.5,2.6c-0.1,0.4-0.2,0.6-0.3,0.6
			c-0.1,0.1-0.2,0-0.3-0.2c-0.2-0.3-0.3-0.8-0.4-1.3c-0.1-0.5,0-1,0.1-1.4c0.2-0.6,0.6-1.3,1.2-2.1c0.6-0.9,1.2-1.8,1.6-2.7
			c0.4-0.9,0.7-1.7,0.9-2.3c0.1-0.6,0.2-1.1,0-1.3c-0.1-0.2-0.4-0.2-0.9,0c-0.6,0.3-1.2,0.9-1.8,1.6c-0.6,0.7-1.3,1.6-1.9,2.7
			c-0.6,1.1-1.2,2.4-1.8,3.8c-0.4-0.8-0.7-1.5-0.9-2.1c-0.2-0.5-0.3-1-0.2-1.4c0-0.4,0.1-0.8,0.3-1.3c0.2-0.4,0.5-1,0.9-1.7
			c1.2-2,2.4-3.4,3.6-4.1c0.7-0.4,1.4-0.6,2.1-0.5c0.6,0.1,1.1,0.5,1.5,1.2c0.3,0.5,0.4,0.9,0.5,1.4c0,0.5,0,1-0.2,1.6
			c-0.2,0.6-0.4,1.1-0.7,1.7c-0.3,0.6-0.7,1.3-1.2,2c0.8-0.4,1.5-0.6,2-0.5c0.5,0.1,1.1,0.5,1.7,1.3l0.9-1.1
			c-0.1-0.3-0.2-0.5-0.2-0.8c0-0.4,0.1-1,0.3-1.8c0.3-0.9,0.6-1.7,0.9-2.3c0.3-0.6,0.6-1,0.9-1.2c0.2-0.1,0.4-0.2,0.7-0.1
			c0.2,0.1,0.4,0.2,0.5,0.4c0.1,0.2,0.2,0.5,0.2,1c0,0.5,0,0.9-0.1,1.3c-0.1,0.4-0.2,0.6-0.4,0.7c-0.2,0.1-0.3,0.1-0.4-0.1
			c0-0.1,0-0.1-0.1-0.1c0,0,0-0.1-0.1-0.1c0-0.1-0.1-0.1-0.1-0.1c-0.1,0-0.1,0.1-0.1,0.2c-0.3,0.8-0.6,1.3-0.7,1.6
			c-0.1,0.3-0.2,0.6-0.2,0.8c0,0.2,0,0.5,0.1,0.7c0.2,0.3,0.5,0.6,0.8,0.7c0.4,0.1,0.7,0,1.1-0.2c0.4-0.2,0.7-0.6,1.1-1.2
			c0.3-0.6,0.7-1.3,1.1-2.2c-0.1-0.2-0.1-0.3-0.1-0.5c0-0.3,0-0.8,0-1.3c0.1-0.8,0.1-1.4,0.3-1.8c0.1-0.4,0.3-0.7,0.6-0.8
			c0.2-0.1,0.3-0.1,0.5-0.2c0.2,0,0.3,0.1,0.3,0.2c0.1,0.1,0.1,0.4,0,0.8c-0.1,0.4-0.2,0.9-0.3,1.4c-0.1,0.3-0.1,0.6-0.1,0.9
			c0,0.3,0,0.6,0.1,0.7c0.1,0.2,0.2,0.2,0.3,0.1c0.1-0.1,0.2-0.4,0.4-1.1c0.2-0.7,0.4-1.4,0.6-2.1c0.2-0.8,0.4-1.4,0.6-2
			c0.2-0.6,0.5-0.9,0.8-1.1c0.2-0.1,0.4-0.1,0.6-0.1c0.2,0.1,0.3,0.2,0.5,0.4c0.1,0.1,0.1,0.4,0.1,0.9c0,0.4,0,1,0,1.7
			c0,0.7-0.1,1.6-0.3,2.6c0.4-1.2,0.7-2.2,1-3.1c0.3-0.9,0.5-1.6,0.6-2.1c0.2-0.5,0.3-0.9,0.4-1.3c0.1-0.4,0.2-0.6,0.3-0.6
			c0.1-0.1,0.3,0,0.6,0.2c0.3,0.2,0.5,0.4,0.6,0.6c0.1,0.1,0,0.5-0.1,1.1c-0.1,0.6-0.2,1.1-0.3,1.5c0,0.4,0,0.7,0.2,0.9
			c0.1,0.2,0.2,0.3,0.4,0.3c0.2,0,0.3,0,0.5-0.1c0.2-0.1,0.3-0.3,0.5-0.6c0.1-0.3,0.3-0.9,0.6-1.6l0.4,0.6
			C52.2,39.5,52,40.2,51.8,40.8z"/>
	</g>
</g>
</svg>
